<?xml version="1.0" encoding="UTF-8" standalone="no"?><!-- Generator: Gravit.io --><svg xmlns="http://www.w3.org/2000/svg" xmlns:xlink="http://www.w3.org/1999/xlink" style="isolation:isolate" viewBox="0 0 500 500" width="500pt" height="500pt"><defs><clipPath id="_clipPath_mO94yjNY91ZLB3P1edLJPfeeazx8NhIy"><rect width="500" height="500"/></clipPath></defs><g clip-path="url(#_clipPath_mO94yjNY91ZLB3P1edLJPfeeazx8NhIy)"><path d="M 35 0 L 465 0 C 484.317 0 500 15.683 500 35 L 500 465 C 500 484.317 484.317 500 465 500 L 35 500 C 15.683 500 0 484.317 0 465 L 0 35 C 0 15.683 15.683 0 35 0 Z" style="stroke:none;fill:#FFFFFF;stroke-miterlimit:10;"/><g><g opacity="0"><rect x="54" y="54" width="392" height="392" transform="matrix(1,0,0,1,0,0)" fill="rgb(243,243,243)"/></g><rect x="69.18" y="69.18" width="173.23" height="173.23" transform="matrix(1,0,0,1,0,0)" fill="rgb(243,83,37)"/><rect x="257.59" y="69.18" width="173.23" height="173.23" transform="matrix(1,0,0,1,0,0)" fill="rgb(129,188,6)"/><rect x="69.18" y="257.59" width="173.23" height="173.23" transform="matrix(1,0,0,1,0,0)" fill="rgb(5,166,240)"/><rect x="257.59" y="257.59" width="173.23" height="173.23" transform="matrix(1,0,0,1,0,0)" fill="rgb(255,186,8)"/></g></g></svg>